<svg xmlns="http://www.w3.org/2000/svg" viewBox="0 0 2000 2000"><defs><style>.cls-1{fill:#fff;}.cls-2{fill:#fbc9a1;}.cls-3{fill:#fcf5b7;}.cls-4{fill:#59c3e6;}.cls-5{fill:#1d1d1b;}.cls-5,.cls-6{stroke:#1d1d1b;stroke-miterlimit:10;stroke-width:10px;}.cls-6{fill:none;}</style></defs><g id="Layer_2" data-name="Layer 2"><g id="Layer_1-2" data-name="Layer 1"><rect class="cls-1" width="2000" height="2000"/><rect class="cls-2" x="1259.25" y="333.91" width="669.32" height="1015.22"/><rect class="cls-3" x="473.17" y="714.83" width="1017.19" height="1078.05"/><rect class="cls-4" x="60.38" y="236.87" width="919.15" height="759.83"/><line class="cls-5" x1="339.89" y1="381.26" x2="339.89" y2="1659.38"/><line class="cls-5" x1="479.4" y1="804.68" x2="479.4" y2="1659.38"/><path class="cls-6" d="M723.32,1007.51v145.75c0,2,.2,4.09.22,6.14,1.86,208.56-49,482.06-162.75,495.15-.65.08-1.09.84-1.64,1.26"/><path class="cls-6" d="M723.1,1033.62V887.86c0-2-.19-4.08-.21-6.13-1.86-208.56,49-482.06,162.74-495.15.66-.08,1.1-.84,1.65-1.26"/><line class="cls-5" x1="973.94" y1="381.77" x2="973.94" y2="1659.89"/><line class="cls-5" x1="1069.72" y1="709.47" x2="869.55" y2="709.47"/><line class="cls-5" x1="1123.94" y1="804.68" x2="1123.94" y2="1659.89"/><line class="cls-5" x1="1561.94" y1="381.77" x2="1561.94" y2="1659.89"/><line class="cls-5" x1="1596.68" y1="1349.62" x2="1817.28" y2="1656.66"/><line class="cls-5" x1="1596.68" y1="1354.13" x2="1817.28" y2="1047.09"/><path class="cls-6" d="M1255.86,1033.82V888.06c0-2-.2-4.08-.22-6.13-1.86-208.56,49-482.07,162.75-495.16.65-.07,1.09-.83,1.64-1.25"/><path class="cls-6" d="M1256.13,1007.52v145.75c0,2-.19,4.09-.21,6.13-1.86,208.56,49,482.07,162.75,495.16.65.08,1.09.84,1.64,1.26"/></g></g></svg>